<?xml version="1.0" encoding="UTF-8" standalone="no"?>
<!-- Created with Inkscape (http://www.inkscape.org/) -->

<svg
   xmlns:svg="http://www.w3.org/2000/svg"
   xmlns="http://www.w3.org/2000/svg"
   version="1.1"
   width="350"
   height="348"
   id="svg2">
  <defs
     id="defs4" />
  <g
     transform="translate(-539.16553,-286.87976)"
     id="layer1">
    <g
       transform="translate(46.669046,86.267027)"
       id="g2900">
      <path
         d="m 492.49648,200.61273 350,0 0,348 -350,0 0,-348 z"
         id="path2844"
         style="fill:#e9bf8d" />
      <path
         d="m 494.48167,202.6092 345.02772,0 0,343.73496 -345.02772,0 0,-343.73496 z m 201.83349,332.15491 c 69.84254,-11.9996 123.33045,-65.67041 134.54291,-135.003 2.77915,-17.18494 1.84575,-44.0671 -2.08471,-60.04031 -8.27299,-33.62108 -23.61024,-59.58586 -49.55557,-83.89382 -24.58889,-23.03712 -58.11519,-38.36448 -92.98161,-42.50882 -13.36091,-1.58812 -42.53684,-0.17853 -55.04166,2.65927 -33.10032,7.51164 -61.51416,23.77735 -84.97076,48.64211 -30.46882,32.29794 -45.67543,73.62078 -43.37249,117.8615 4.21765,81.02353 68.50039,146.69249 150.98334,154.2392 11.30978,1.03478 30.11131,0.16901 42.48055,-1.95613 z M 545.80606,461.2243 c 0,0 0,-47.7795 0,-47.7795 l 134.2258,-123.21496 c 0,0 -121.47155,0 -121.47155,0 l 0,-25.71645 217.48349,0 0,45.53634 -123.03405,119.23086 144.1658,0 0,31.94371 c 0,0 -251.36949,0 -251.36949,0 z m 252.96785,-79.47303 0,6.12461 -66.24917,0 0,-6.12461 c 0,0 66.24917,0 66.24917,0 z M 554.413,342.07203 c 0,0 -25.96847,0 -25.96847,0 l -0.0781,-6.88349 26.04657,0 c 0,0 0,-25.66716 0,-25.66716 0,0 6.71624,0 6.71624,0 l 0,25.66716 26.9072,0 0.0781,6.88349 -26.9853,0 0,25.82313 -6.71624,0 0,-25.82313 z"
         id="path2842"
         style="fill:#e62f0e" />
      <path
         d="m 492.49648,200.61273 350,0 0,348 -350,0 0,-348 z m 196.9481,340.91261 c 9.68939,-1.23202 26.07149,-4.86224 27.5019,-6.09432 0.5225,-0.45006 2.00293,-0.81829 3.28984,-0.81829 1.28691,0 4.10398,-0.9 6.26016,-2 2.15618,-1.1 4.42003,-2 5.03079,-2 3.9013,0 37.56918,-18.97565 41.46921,-23.37259 0.55,-0.62008 2.575,-2.30468 4.5,-3.74358 4.3324,-3.23836 21.99966,-21.13358 25.55411,-25.88383 9.74432,-13.02254 20.75832,-33.03045 24.49645,-44.5 1.25479,-3.85 2.6083,-7.45 3.00781,-8 3.15365,-4.34155 7.21735,-31.93079 7.21735,-49 0,-47.63936 -17.65698,-87.93596 -53.44108,-121.96273 -30.87489,-29.35865 -73.47445,-46.54339 -115.33464,-46.5262 -21.92341,0.009 -38.53925,2.55798 -56.5,8.66747 -11.2425,3.82423 -28.22317,11.62645 -34.34453,15.78052 -2.05936,1.39752 -4.02199,2.54094 -4.3614,2.54094 -2.19128,0 -26.68455,20.92324 -33.36282,28.5 -1.86769,2.11896 -8.24535,9.93883 -10.24278,12.55902 -7.03709,9.23113 -15.89677,24.85387 -20.94927,36.94098 -12.79248,30.6035 -15.27461,72.92632 -6.15799,105 4.3361,15.25508 16.11105,41.83986 19.93879,45.0166 0.814,0.67556 1.48,1.64141 1.48,2.14634 0,2.47671 14.80075,20.71725 23.5,28.96156 12.91584,12.24038 23.45886,20.02031 38.03677,28.0682 8.08271,4.46214 24.38241,11.4648 29.96323,12.87276 1.65,0.41628 6.8162,1.75509 11.48045,2.97515 4.66424,1.22006 12.31424,2.77814 17,3.46241 10.93435,1.59675 33.98019,1.80667 44.96765,0.40959 z"
         id="path2840"
         style="fill:#516265" />
    </g>
  </g>
</svg>
